<svg xmlns="http://www.w3.org/2000/svg" xmlns:xlink="http://www.w3.org/1999/xlink" xmlns:lucid="lucid" width="1403" height="1133.9"><g transform="translate(-278.5 -607.5954721985166)" lucid:page-tab-id="0_0"><path d="M1280 786a6 6 0 0 1 6-6h388a6 6 0 0 1 6 6v228a6 6 0 0 1-6 6h-388a6 6 0 0 1-6-6zm40-6v240m320-240v240" stroke="#000" stroke-width="3" fill="#f2f2ff"/><use xlink:href="#a" transform="matrix(1,0,0,1,1330,780) translate(71.10460069444444 128.08376736111111)"/><path d="M1280 1126a6 6 0 0 1 6-6h388a6 6 0 0 1 6 6v228a6 6 0 0 1-6 6h-388a6 6 0 0 1-6-6zm40-6v240m320-240v240" stroke="#000" stroke-width="3" fill="#f2f2ff"/><use xlink:href="#b" transform="matrix(1,0,0,1,1330,1120) translate(63.5470920138889 128.58376736111111)"/><path d="M800 1126a6 6 0 0 1 6-6h388a6 6 0 0 1 6 6v228a6 6 0 0 1-6 6H806a6 6 0 0 1-6-6zm40-6v240m320-240v240" stroke="#000" stroke-width="3" fill="#f2f2ff"/><use xlink:href="#c" transform="matrix(1,0,0,1,850,1120) translate(49.42491319444446 128.58376736111111)"/><path d="M540 1506a6 6 0 0 1 6-6h388a6 6 0 0 1 6 6v228a6 6 0 0 1-6 6H546a6 6 0 0 1-6-6zm40-6v240m320-240v240" stroke="#000" stroke-width="3" fill="#f2f2ff"/><use xlink:href="#d" transform="matrix(1,0,0,1,590,1500) translate(39.577907986111114 128.58376736111111)"/><path d="M280 1126a6 6 0 0 1 6-6h388a6 6 0 0 1 6 6v228a6 6 0 0 1-6 6H286a6 6 0 0 1-6-6zm40-6v240m320-240v240" stroke="#000" stroke-width="3" fill="#f2f2ff"/><use xlink:href="#e" transform="matrix(1,0,0,1,330,1120) translate(8.414713541666657 128.58376736111111)"/><path d="M1480 1039v62" stroke="#000" stroke-width="3" fill="none"/><path d="M1480 1024.5l7.5 13h-15zM1480 1115.5l-7.5-13h15z" stroke="#000" stroke-width="3"/><path d="M1000.72 1101.02l.02-.27.88-8.43 1.2-8.17 1.52-7.95 1.82-7.74 2.1-7.55 2.4-7.4 2.7-7.23 3-7.12 3.3-7 3.6-6.9 3.92-6.8 4.27-6.7 4.6-6.65 5-6.57 5.37-6.5 5.8-6.42 6.22-6.35 6.7-6.3 7.2-6.2 7.72-6.12 8.28-6.02 8.88-5.88 9.5-5.75 10.14-5.58 10.82-5.38 11.5-5.12 12.2-4.83 12.9-4.5 13.6-4.08 14.2-3.66 14.8-3.14 15.33-2.6 15.76-1.98 16.08-1.35 6.98-.3" stroke="#000" stroke-width="3" stroke-linejoin="round" fill="none"/><path d="M1000.12 1115.5l-6.96-13.3 15 .63zM1275.5 900.08l-12.78 7.85-.4-15z" stroke="#000" stroke-width="3"/><path d="M781 1240h-82" stroke="#000" stroke-width="3" stroke-linejoin="round" fill="none"/><path d="M795.5 1240l-13 7.5v-15zM684.5 1240l13-7.5v15z" stroke="#000" stroke-width="3"/><path d="M745.5 1482.2l.2-.3.96-1.27 1.1-1.32 1.24-1.37 1.42-1.46 1.64-1.53 1.9-1.64 2.22-1.76 2.62-1.9 3.12-2.07 3.77-2.28 4.63-2.56 5.84-2.9 7.58-3.36 10.3-4.06 15.16-5.25 28-8.36 93.6-25.97 15.15-5.25 10.3-4.06 7.58-3.37 5.84-2.9 4.64-2.54 3.78-2.27 3.12-2.07 2.62-1.9 2.22-1.76 1.9-1.64 1.64-1.53 1.42-1.46 1.25-1.38 1.1-1.33.95-1.27.2-.3" stroke="#000" stroke-width="3" stroke-linejoin="round" fill="none"/><path d="M740.96 1495.65l-2.96-14.7 14.2 4.8zM999.04 1364.34l2.97 14.7-14.2-4.78z" stroke="#000" stroke-width="3"/><path d="M485.5 1377.8l.2.3.96 1.27 1.1 1.32 1.24 1.37 1.42 1.46 1.64 1.53 1.9 1.64 2.22 1.76 2.62 1.9 3.12 2.07 3.77 2.28 4.63 2.56 5.84 2.9 7.58 3.36 10.3 4.06 15.16 5.25 28 8.36 93.6 25.97 15.15 5.25 10.3 4.06 7.58 3.37 5.84 2.9 4.64 2.54 3.78 2.27 3.12 2.07 2.62 1.9 2.22 1.76 1.9 1.64 1.64 1.53 1.42 1.46 1.25 1.38 1.1 1.33.95 1.27.2.3" stroke="#000" stroke-width="3" stroke-linejoin="round" fill="none"/><path d="M480.96 1364.35l11.25 9.9-14.2 4.8zM739.04 1495.66l-11.25-9.92 14.2-4.8z" stroke="#000" stroke-width="3"/><path d="M280 806a6 6 0 0 1 6-6h388a6 6 0 0 1 6 6v228a6 6 0 0 1-6 6H286a6 6 0 0 1-6-6zm40-6v240m320-240v240" stroke="#000" stroke-width="3" fill="#f2f2ff"/><use xlink:href="#f" transform="matrix(1,0,0,1,330,800) translate(57.57921006944446 128.58376736111111)"/><path d="M699 920.36l11.26.24 27.27 1.7 25.3 2.66 23.1 3.4 20.92 4 18.85 4.4 16.93 4.72 15.2 4.94 13.67 5.08 12.3 5.17 11.12 5.22 10.05 5.24 9.12 5.26 8.3 5.27 7.56 5.26 6.92 5.25 6.35 5.25 5.83 5.25 5.37 5.25 4.95 5.27 4.57 5.3 4.22 5.32 3.9 5.37 3.6 5.4 3.33 5.5 3.07 5.58 2.8 5.68 2.6 5.8 2.34 5.9 2.13 6.1 1.9 6.26 1.64 6.46 1.43 6.7 1.17 6.95.92 7.26.18 2.24" stroke="#000" stroke-width="3" stroke-linejoin="round" fill="none"/><path d="M684.5 920.06l13.15-7.23-.3 15zM999.86 1115.5l-8.1-12.62 14.98-.7z" stroke="#000" stroke-width="3"/><path d="M480.03 797l.18-8.47.58-9.1.87-8.36 1.14-7.74 1.37-7.2 1.57-6.73 1.77-6.32 1.95-5.98 2.1-5.67 2.28-5.4 2.43-5.17 2.6-4.96 2.76-4.8 2.93-4.62 3.13-4.5 3.32-4.37 3.54-4.26 3.77-4.2 4.05-4.1 4.32-4.07 4.65-4.02 5.03-3.98 5.44-3.95 5.92-3.94 6.5-3.93 7.15-3.93 7.93-3.93 8.88-3.96 10.02-3.96 11.43-3.98 13.23-4 15.55-3.97 18.7-3.96 23.2-3.9 30.1-3.78 42.72-3.53 79.55-3.08 148-2.02 232.66-4.08 45.7 1.9 32.14 2.68 24.65 3.12 19.83 3.36 16.43 3.5 13.93 3.58 12 3.63 10.46 3.65 9.24 3.66 8.23 3.68 7.4 3.67 6.7 3.7 6.08 3.68 5.6 3.72 5.12 3.74 4.74 3.76 4.4 3.8 4.08 3.85 3.82 3.9 3.58 3.98 3.35 4.06 3.13 4.16 2.96 4.26 2.77 4.4 2.6 4.53 2.47 4.7 2.3 4.9 2.14 5.12 2 5.36 1.8 5.64 1.67 5.97 1.48 6.34 1.3 6.77 1.05 7.26.8 7.84.02.1" stroke="#000" stroke-width="3" stroke-linejoin="round" fill="none"/><path d="M481.5 797l-.02 1.5h-2.96l.04-1.58z" stroke="#000" stroke-width=".05"/><path d="M1479.88 775.5l-8.02-12.68 15-.6z" stroke="#000" stroke-width="3"/><defs><path d="M180 0v-1490h190v1322h690V0H180" id="g"/><path d="M613 24c-304 0-509-231-509-576 0-350 205-580 509-580 305 0 511 230 511 580 0 345-206 576-511 576zm0-161c226 0 329-195 329-415 0-222-103-419-329-419-223 0-326 196-326 419 0 220 103 415 326 415" id="h"/><path d="M611 442c-248 0-391-105-460-228l146-94c47 65 117 165 314 165 178 0 307-82 307-266v-224h-17C863-141 792-18 576-18c-268 0-472-195-472-546 0-346 197-568 476-568 216 0 288 133 326 193h17v-179h175V29c0 289-215 413-487 413zm-5-620c203 0 314-146 314-390 0-237-108-403-314-403-213 0-319 180-319 403 0 230 109 390 319 390" id="i"/><path d="M158 0v-1118h180V0H158zm91-1301c-68 0-125-53-125-119s57-119 125-119c69 0 126 53 126 119s-57 119-126 119" id="j"/><path d="M338-670V0H158v-1118h173l1 207c72-158 192-221 342-221 226 0 378 139 378 422V0H872v-695c0-172-96-275-252-275-161 0-282 109-282 300" id="k"/><path d="M180 0v-1490h901v168H370v510h643v168H370V0H180" id="l"/><path d="M158 0v-1118h174v172h12c41-113 157-188 290-188 26 0 70 2 91 3v181c-11-2-60-10-108-10-161 0-279 109-279 260V0H158" id="m"/><path d="M471 26C259 26 90-98 90-318c0-256 228-303 435-329 202-27 287-16 287-108 0-139-79-219-234-219-161 0-248 86-283 164l-173-57c86-203 278-265 451-265 150 0 419 46 419 395V0H815v-152h-12C765-73 660 26 471 26zm31-159c199 0 310-134 310-271v-155c-30 35-226 55-295 64-131 17-246 59-246 186 0 116 97 176 231 176" id="n"/><path d="M158 0v-1118h175l1 205c55-151 181-225 313-225 147 0 245 90 285 228 53-141 190-228 352-228 194 0 352 125 352 384V0h-181v-749c0-161-105-225-225-225-151 0-243 103-243 244V0H807v-767c0-124-93-207-219-207-131 0-250 92-250 270V0H158" id="o"/><path d="M628 24c-324 0-524-230-524-574 0-343 198-582 503-582 237 0 487 146 487 559v75H286c9 234 145 362 343 362 132 0 231-58 273-172l174 48C1024-91 857 24 628 24zM287-650h624c-17-190-120-322-304-322-192 0-309 151-320 322" id="p"/><path d="M598-1118v154H368v674c0 100 37 144 132 144 23 0 62-6 92-12L629-6c-37 13-88 20-134 20-193 0-307-107-307-290v-688H20v-154h168v-266h180v266h230" id="q"/><g id="a"><use transform="matrix(0.010850694444444444,0,0,0.010850694444444444,0,0)" xlink:href="#g"/><use transform="matrix(0.010850694444444444,0,0,0.010850694444444444,12.565104166666666,0)" xlink:href="#h"/><use transform="matrix(0.010850694444444444,0,0,0.010850694444444444,25.889756944444443,0)" xlink:href="#i"/><use transform="matrix(0.010850694444444444,0,0,0.010850694444444444,39.518229166666664,0)" xlink:href="#j"/><use transform="matrix(0.010850694444444444,0,0,0.010850694444444444,44.90017361111111,0)" xlink:href="#k"/><use transform="matrix(0.010850694444444444,0,0,0.010850694444444444,58.029513888888886,0)" xlink:href="#l"/><use transform="matrix(0.010850694444444444,0,0,0.010850694444444444,70.49696180555556,0)" xlink:href="#m"/><use transform="matrix(0.010850694444444444,0,0,0.010850694444444444,78.86284722222223,0)" xlink:href="#n"/><use transform="matrix(0.010850694444444444,0,0,0.010850694444444444,91.34114583333334,0)" xlink:href="#i"/><use transform="matrix(0.010850694444444444,0,0,0.010850694444444444,104.96961805555557,0)" xlink:href="#o"/><use transform="matrix(0.010850694444444444,0,0,0.010850694444444444,124.4357638888889,0)" xlink:href="#p"/><use transform="matrix(0.010850694444444444,0,0,0.010850694444444444,137.39149305555557,0)" xlink:href="#k"/><use transform="matrix(0.010850694444444444,0,0,0.010850694444444444,150.52083333333334,0)" xlink:href="#q"/></g><path d="M657 26c-323 0-524-166-541-416h195c15 169 171 246 346 246 202 0 356-106 356-265 5-203-294-238-475-293-239-73-380-191-380-389 0-252 224-419 512-419 294 0 499 171 508 396H992c-17-145-151-228-328-228-193 0-321 102-321 242 0 156 175 211 284 241l149 41c160 44 422 134 422 412 0 244-197 432-541 432" id="r"/><path d="M537 14c-226 0-379-139-379-422v-710h180v695c0 172 97 275 253 275 160 0 281-109 281-300v-670h181V0H879v-209C806-46 684 14 537 14" id="s"/><path d="M158 418v-1536h174v179h20c37-59 106-193 324-193 279 0 474 222 474 576 0 356-194 580-473 580-213 0-288-135-325-197h-14v591H158zm492-555c209 0 317-186 317-421 0-232-105-413-317-413-206 0-314 166-314 413 0 249 111 421 314 421" id="t"/><g id="b"><use transform="matrix(0.010850694444444444,0,0,0.010850694444444444,0,0)" xlink:href="#r"/><use transform="matrix(0.010850694444444444,0,0,0.010850694444444444,14.2578125,0)" xlink:href="#j"/><use transform="matrix(0.010850694444444444,0,0,0.010850694444444444,19.639756944444443,0)" xlink:href="#i"/><use transform="matrix(0.010850694444444444,0,0,0.010850694444444444,33.268229166666664,0)" xlink:href="#k"/><use transform="matrix(0.010850694444444444,0,0,0.010850694444444444,46.39756944444444,0)" xlink:href="#s"/><use transform="matrix(0.010850694444444444,0,0,0.010850694444444444,59.537760416666664,0)" xlink:href="#t"/><use transform="matrix(0.010850694444444444,0,0,0.010850694444444444,73.14453125,0)" xlink:href="#l"/><use transform="matrix(0.010850694444444444,0,0,0.010850694444444444,85.61197916666666,0)" xlink:href="#m"/><use transform="matrix(0.010850694444444444,0,0,0.010850694444444444,93.97786458333333,0)" xlink:href="#n"/><use transform="matrix(0.010850694444444444,0,0,0.010850694444444444,106.45616319444444,0)" xlink:href="#i"/><use transform="matrix(0.010850694444444444,0,0,0.010850694444444444,120.08463541666666,0)" xlink:href="#o"/><use transform="matrix(0.010850694444444444,0,0,0.010850694444444444,139.55078125,0)" xlink:href="#p"/><use transform="matrix(0.010850694444444444,0,0,0.010850694444444444,152.50651041666666,0)" xlink:href="#k"/><use transform="matrix(0.010850694444444444,0,0,0.010850694444444444,165.63585069444443,0)" xlink:href="#q"/></g><path d="M180 0v-1490h270l367 940c28 72 75 218 110 339 35-117 81-264 110-339l362-940h271V0h-187c2-448-5-837 7-1287-157 497-311 829-483 1287H842C666-458 514-784 354-1284c12 438 5 843 7 1284H180" id="u"/><path d="M600 0L52-1490h200c166 485 304 806 458 1336 156-533 285-846 449-1336h202L819 0H600" id="v"/><path d="M409 0L70-1118h191c89 329 165 560 243 925 75-353 154-601 240-925h192c85 325 161 564 235 922 77-354 157-598 244-922h191L1267 0h-179c-86-307-176-590-250-913C763-588 675-308 588 0H409" id="w"/><g id="c"><use transform="matrix(0.010850694444444444,0,0,0.010850694444444444,0,0)" xlink:href="#u"/><use transform="matrix(0.010850694444444444,0,0,0.010850694444444444,20.07378472222222,0)" xlink:href="#n"/><use transform="matrix(0.010850694444444444,0,0,0.010850694444444444,32.55208333333333,0)" xlink:href="#j"/><use transform="matrix(0.010850694444444444,0,0,0.010850694444444444,37.93402777777777,0)" xlink:href="#k"/><use transform="matrix(0.010850694444444444,0,0,0.010850694444444444,49.93489583333333,0)" xlink:href="#v"/><use transform="matrix(0.010850694444444444,0,0,0.010850694444444444,65.26692708333333,0)" xlink:href="#j"/><use transform="matrix(0.010850694444444444,0,0,0.010850694444444444,70.64887152777777,0)" xlink:href="#p"/><use transform="matrix(0.010850694444444444,0,0,0.010850694444444444,83.203125,0)" xlink:href="#w"/><use transform="matrix(0.010850694444444444,0,0,0.010850694444444444,101.38888888888889,0)" xlink:href="#l"/><use transform="matrix(0.010850694444444444,0,0,0.010850694444444444,113.85633680555556,0)" xlink:href="#m"/><use transform="matrix(0.010850694444444444,0,0,0.010850694444444444,122.22222222222221,0)" xlink:href="#n"/><use transform="matrix(0.010850694444444444,0,0,0.010850694444444444,134.70052083333331,0)" xlink:href="#i"/><use transform="matrix(0.010850694444444444,0,0,0.010850694444444444,148.32899305555554,0)" xlink:href="#o"/><use transform="matrix(0.010850694444444444,0,0,0.010850694444444444,167.79513888888889,0)" xlink:href="#p"/><use transform="matrix(0.010850694444444444,0,0,0.010850694444444444,180.75086805555554,0)" xlink:href="#k"/><use transform="matrix(0.010850694444444444,0,0,0.010850694444444444,193.88020833333331,0)" xlink:href="#q"/></g><path d="M180 0v-1490h510c348 0 508 194 508 460 0 198-88 351-276 417L1256 0h-220L726-579c-117 2-238 0-356 1V0H180zm190-747h312c235 0 327-108 327-283 0-177-92-293-329-293H370v576" id="x"/><g id="d"><use transform="matrix(0.010850694444444444,0,0,0.010850694444444444,0,0)" xlink:href="#x"/><use transform="matrix(0.010850694444444444,0,0,0.010850694444444444,13.975694444444445,0)" xlink:href="#p"/><use transform="matrix(0.010850694444444444,0,0,0.010850694444444444,26.931423611111104,0)" xlink:href="#t"/><use transform="matrix(0.010850694444444444,0,0,0.010850694444444444,40.53819444444444,0)" xlink:href="#h"/><use transform="matrix(0.010850694444444444,0,0,0.010850694444444444,53.86284722222222,0)" xlink:href="#m"/><use transform="matrix(0.010850694444444444,0,0,0.010850694444444444,62.57595486111111,0)" xlink:href="#q"/><use transform="matrix(0.010850694444444444,0,0,0.010850694444444444,69.62890625,0)" xlink:href="#v"/><use transform="matrix(0.010850694444444444,0,0,0.010850694444444444,84.9609375,0)" xlink:href="#j"/><use transform="matrix(0.010850694444444444,0,0,0.010850694444444444,90.34288194444444,0)" xlink:href="#p"/><use transform="matrix(0.010850694444444444,0,0,0.010850694444444444,102.89713541666666,0)" xlink:href="#w"/><use transform="matrix(0.010850694444444444,0,0,0.010850694444444444,121.08289930555556,0)" xlink:href="#l"/><use transform="matrix(0.010850694444444444,0,0,0.010850694444444444,133.55034722222223,0)" xlink:href="#m"/><use transform="matrix(0.010850694444444444,0,0,0.010850694444444444,141.91623263888889,0)" xlink:href="#n"/><use transform="matrix(0.010850694444444444,0,0,0.010850694444444444,154.39453125,0)" xlink:href="#i"/><use transform="matrix(0.010850694444444444,0,0,0.010850694444444444,168.02300347222223,0)" xlink:href="#o"/><use transform="matrix(0.010850694444444444,0,0,0.010850694444444444,187.4891493055556,0)" xlink:href="#p"/><use transform="matrix(0.010850694444444444,0,0,0.010850694444444444,200.44487847222223,0)" xlink:href="#k"/><use transform="matrix(0.010850694444444444,0,0,0.010850694444444444,213.57421875,0)" xlink:href="#q"/></g><path d="M538 24C308 24 148-78 108-271l171-41c32 123 123 178 257 178 156 0 256-77 256-169 0-77-54-128-164-154l-186-44c-203-48-300-148-300-305 0-192 176-326 414-326 230 0 351 112 402 269l-163 42c-31-80-94-158-238-158-133 0-233 69-233 162 0 83 57 129 188 160l169 40c203 48 298 149 298 302 0 196-179 339-441 339" id="y"/><path d="M140 405l46-156c120 36 205 19 263-150l32-93L54-1118h197c107 313 237 620 324 950 87-331 219-637 326-950h196L606 167c-68 178-176 259-334 259-64 0-113-12-132-21" id="z"/><g id="e"><use transform="matrix(0.010850694444444444,0,0,0.010850694444444444,0,0)" xlink:href="#x"/><use transform="matrix(0.010850694444444444,0,0,0.010850694444444444,13.975694444444445,0)" xlink:href="#p"/><use transform="matrix(0.010850694444444444,0,0,0.010850694444444444,26.931423611111104,0)" xlink:href="#y"/><use transform="matrix(0.010850694444444444,0,0,0.010850694444444444,38.66102430555555,0)" xlink:href="#q"/><use transform="matrix(0.010850694444444444,0,0,0.010850694444444444,46.03949652777778,0)" xlink:href="#n"/><use transform="matrix(0.010850694444444444,0,0,0.010850694444444444,58.517795138888886,0)" xlink:href="#s"/><use transform="matrix(0.010850694444444444,0,0,0.010850694444444444,71.65798611111111,0)" xlink:href="#m"/><use transform="matrix(0.010850694444444444,0,0,0.010850694444444444,80.02387152777779,0)" xlink:href="#n"/><use transform="matrix(0.010850694444444444,0,0,0.010850694444444444,92.5021701388889,0)" xlink:href="#k"/><use transform="matrix(0.010850694444444444,0,0,0.010850694444444444,105.63151041666666,0)" xlink:href="#q"/><use transform="matrix(0.010850694444444444,0,0,0.010850694444444444,112.90147569444444,0)" xlink:href="#g"/><use transform="matrix(0.010850694444444444,0,0,0.010850694444444444,125.4665798611111,0)" xlink:href="#n"/><use transform="matrix(0.010850694444444444,0,0,0.010850694444444444,137.61935763888889,0)" xlink:href="#z"/><use transform="matrix(0.010850694444444444,0,0,0.010850694444444444,149.67447916666666,0)" xlink:href="#h"/><use transform="matrix(0.010850694444444444,0,0,0.010850694444444444,162.99913194444443,0)" xlink:href="#s"/><use transform="matrix(0.010850694444444444,0,0,0.010850694444444444,176.13932291666666,0)" xlink:href="#q"/><use transform="matrix(0.010850694444444444,0,0,0.010850694444444444,183.40928819444443,0)" xlink:href="#l"/><use transform="matrix(0.010850694444444444,0,0,0.010850694444444444,195.87673611111111,0)" xlink:href="#m"/><use transform="matrix(0.010850694444444444,0,0,0.010850694444444444,204.24262152777777,0)" xlink:href="#n"/><use transform="matrix(0.010850694444444444,0,0,0.010850694444444444,216.72092013888889,0)" xlink:href="#i"/><use transform="matrix(0.010850694444444444,0,0,0.010850694444444444,230.34939236111111,0)" xlink:href="#o"/><use transform="matrix(0.010850694444444444,0,0,0.010850694444444444,249.81553819444449,0)" xlink:href="#p"/><use transform="matrix(0.010850694444444444,0,0,0.010850694444444444,262.77126736111114,0)" xlink:href="#k"/><use transform="matrix(0.010850694444444444,0,0,0.010850694444444444,275.9006076388889,0)" xlink:href="#q"/></g><g id="f"><use transform="matrix(0.010850694444444444,0,0,0.010850694444444444,0,0)" xlink:href="#r"/><use transform="matrix(0.010850694444444444,0,0,0.010850694444444444,14.2578125,0)" xlink:href="#p"/><use transform="matrix(0.010850694444444444,0,0,0.010850694444444444,27.213541666666664,0)" xlink:href="#q"/><use transform="matrix(0.010850694444444444,0,0,0.010850694444444444,33.94097222222222,0)" xlink:href="#q"/><use transform="matrix(0.010850694444444444,0,0,0.010850694444444444,41.2109375,0)" xlink:href="#j"/><use transform="matrix(0.010850694444444444,0,0,0.010850694444444444,46.59288194444444,0)" xlink:href="#k"/><use transform="matrix(0.010850694444444444,0,0,0.010850694444444444,59.72222222222222,0)" xlink:href="#i"/><use transform="matrix(0.010850694444444444,0,0,0.010850694444444444,73.35069444444444,0)" xlink:href="#y"/><use transform="matrix(0.010850694444444444,0,0,0.010850694444444444,85.08029513888889,0)" xlink:href="#l"/><use transform="matrix(0.010850694444444444,0,0,0.010850694444444444,97.54774305555556,0)" xlink:href="#m"/><use transform="matrix(0.010850694444444444,0,0,0.010850694444444444,105.91362847222221,0)" xlink:href="#n"/><use transform="matrix(0.010850694444444444,0,0,0.010850694444444444,118.39192708333333,0)" xlink:href="#i"/><use transform="matrix(0.010850694444444444,0,0,0.010850694444444444,132.02039930555554,0)" xlink:href="#o"/><use transform="matrix(0.010850694444444444,0,0,0.010850694444444444,151.48654513888889,0)" xlink:href="#p"/><use transform="matrix(0.010850694444444444,0,0,0.010850694444444444,164.44227430555554,0)" xlink:href="#k"/><use transform="matrix(0.010850694444444444,0,0,0.010850694444444444,177.57161458333331,0)" xlink:href="#q"/></g></defs></g></svg>