<svg xmlns="http://www.w3.org/2000/svg" xmlns:xlink="http://www.w3.org/1999/xlink" xmlns:lucid="lucid" width="3143" height="1693.76"><g transform="translate(2721.5 -1227.7448416666668)" lucid:page-tab-id="0_0"><path d="M-518 2256.35a6 6 0 0 1 6-6h388a6 6 0 0 1 6 6v228a6 6 0 0 1-6 6h-388a6 6 0 0 1-6-6zm40-6v240m320-240v240" stroke="#000" stroke-width="3" fill="#e3fae3"/><use xlink:href="#a" transform="matrix(1,0,0,1,-467.9859241838526,2250.349042131629) translate(91.09700520833334 128.08376736111111)"/><path d="M-518 1936.35a6 6 0 0 1 6-6h388a6 6 0 0 1 6 6v228a6 6 0 0 1-6 6h-388a6 6 0 0 1-6-6zm40-6v240m320-240v240" stroke="#000" stroke-width="3" fill="#e3fae3"/><use xlink:href="#b" transform="matrix(1,0,0,1,-467.9859241838526,1930.349042131629) translate(110.62825520833334 128.08376736111111)"/><path d="M-318 2173.35v44.37" stroke="#000" stroke-width="3" stroke-linejoin="round" fill="none"/><path d="M-316.5 2173.4h-2.96v-1.55h2.95z" stroke="#000" stroke-width=".05"/><path d="M-318 2246.73l14.86-14.85-14.85-14.85-14.83 14.85z" stroke="#000" stroke-width="3"/><use xlink:href="#c" transform="matrix(1,0,0,1,-332.7947230119776,2170.7227740747044) translate(0 16.216875)"/><use xlink:href="#c" transform="matrix(1,0,0,1,-293.48592418385255,2229.721719084754) translate(0 16.216875)"/><path d="M-518 1596.35a6 6 0 0 1 6-6h388a6 6 0 0 1 6 6v248a6 6 0 0 1-6 6h-388a6 6 0 0 1-6-6zm40-6v260m320-260v260" stroke="#000" stroke-width="3" fill="#edf5ff"/><use xlink:href="#d" transform="matrix(1,0,0,1,-467.9859241838526,1590.349042131629) translate(99.78298611111111 138.08376736111111)"/><path d="M-318 1853.35v44.37" stroke="#000" stroke-width="3" stroke-linejoin="round" fill="none"/><path d="M-316.5 1853.4h-2.96v-1.55h2.95z" stroke="#000" stroke-width=".05"/><path d="M-318 1926.73l14.86-14.85-14.85-14.85-14.83 14.85z" stroke="#000" stroke-width="3"/><use xlink:href="#e" transform="matrix(1,0,0,1,-350.8261878557277,1850.7227740747044) translate(0 16.216875)"/><use xlink:href="#c" transform="matrix(1,0,0,1,-293.48592418385255,1909.721719084754) translate(0 16.216875)"/><path d="M-1600 1286a6 6 0 0 1 6-6h388a6 6 0 0 1 6 6v228a6 6 0 0 1-6 6h-388a6 6 0 0 1-6-6zm40-6v240m320-240v240" stroke="#000" stroke-width="3" fill="#e3fae3"/><use xlink:href="#f" transform="matrix(1,0,0,1,-1550,1280) translate(71.10460069444444 128.08376736111111)"/><path d="M-1600 1566a6 6 0 0 1 6-6h388a6 6 0 0 1 6 6v228a6 6 0 0 1-6 6h-388a6 6 0 0 1-6-6zm40-6v240m320-240v240" stroke="#000" stroke-width="3" fill="#e3fae3"/><use xlink:href="#g" transform="matrix(1,0,0,1,-1550,1560) translate(63.5470920138889 128.08376736111111)"/><path d="M-1600 2126a6 6 0 0 1 6-6h388a6 6 0 0 1 6 6v228a6 6 0 0 1-6 6h-388a6 6 0 0 1-6-6zm40-6v240m320-240v240" stroke="#000" stroke-width="3" fill="#e3fae3"/><use xlink:href="#h" transform="matrix(1,0,0,1,-1550,2120) translate(49.42491319444446 128.08376736111111)"/><path d="M-1600 2406a6 6 0 0 1 6-6h388a6 6 0 0 1 6 6v228a6 6 0 0 1-6 6h-388a6 6 0 0 1-6-6zm40-6v240m320-240v240" stroke="#000" stroke-width="3" fill="#e3fae3"/><use xlink:href="#i" transform="matrix(1,0,0,1,-1550,2400) translate(39.577907986111114 128.08376736111111)"/><path d="M-1600 2686a6 6 0 0 1 6-6h388a6 6 0 0 1 6 6v228a6 6 0 0 1-6 6h-388a6 6 0 0 1-6-6zm40-6v240m320-240v240" stroke="#000" stroke-width="3" fill="#e3fae3"/><use xlink:href="#j" transform="matrix(1,0,0,1,-1550,2680) translate(8.414713541666657 128.08376736111111)"/><path d="M-1600 1846a6 6 0 0 1 6-6h388a6 6 0 0 1 6 6v228a6 6 0 0 1-6 6h-388a6 6 0 0 1-6-6zm40-6v240m320-240v240" stroke="#000" stroke-width="3" fill="#e3fae3"/><use xlink:href="#k" transform="matrix(1,0,0,1,-1550,1840) translate(57.57921006944446 128.08376736111111)"/><path d="M20 1936.35a6 6 0 0 1 6-6h388a6 6 0 0 1 6 6v228a6 6 0 0 1-6 6H26a6 6 0 0 1-6-6zm40-6v240m320-240v240" stroke="#000" stroke-width="3" fill="#fff"/><use xlink:href="#l" transform="matrix(1,0,0,1,70,1930.349042131629) translate(104.833984375 128.08376736111111)"/><path d="M-74.23 2051.82H-115v-2.95h40.77zm91.23 0h-40.75v-2.95H17z" stroke="#000" stroke-width=".05"/><path d="M18.5 2051.82h-1.54v-2.95h1.54z"/><path stroke="#000" stroke-width=".05"/><path d="M-114.95 2051.82h-1.54v-2.95h1.55z"/><path stroke="#000" stroke-width=".05"/><use xlink:href="#c" transform="matrix(1,0,0,1,0.29291078002798177,2026.0942960378793) translate(0 16.216875)"/><use xlink:href="#c" transform="matrix(1,0,0,1,-107.87888602826116,2054.3490421316287) translate(0 16.216875)"/><use xlink:href="#m" transform="matrix(1,0,0,1,-74.23268975476155,2039.593833798296) translate(0 17.22222222222222)"/><path d="M-1197 2800h332a6 6 0 0 0 6-6V1726.35a6 6 0 0 1 6-6h307.36" stroke="#000" stroke-width="3" fill="none"/><path d="M-1196.96 2801.47h-1.54v-2.94h1.54z" stroke="#000" stroke-width=".05"/><path d="M-522.5 1720.35l-21.64 12.5v-25z" stroke="#000" stroke-width="3" fill="#fff"/><path d="M-1197 2520h332a6 6 0 0 0 6-6v-787.65a6 6 0 0 1 6-6h307.36" stroke="#000" stroke-width="3" fill="none"/><path d="M-1196.96 2521.47h-1.54v-2.94h1.54z" stroke="#000" stroke-width=".05"/><path d="M-522.5 1720.35l-21.64 12.5v-25z" stroke="#000" stroke-width="3" fill="#fff"/><path d="M-1197 2240h332a6 6 0 0 0 6-6v-507.65a6 6 0 0 1 6-6h307.36" stroke="#000" stroke-width="3" fill="none"/><path d="M-1196.96 2241.47h-1.54v-2.94h1.54z" stroke="#000" stroke-width=".05"/><path d="M-522.5 1720.35l-21.64 12.5v-25z" stroke="#000" stroke-width="3" fill="#fff"/><path d="M-1197 1960h332a6 6 0 0 0 6-6v-227.65a6 6 0 0 1 6-6h307.36" stroke="#000" stroke-width="3" fill="none"/><path d="M-1196.96 1961.47h-1.54v-2.94h1.54z" stroke="#000" stroke-width=".05"/><path d="M-522.5 1720.35l-21.64 12.5v-25z" stroke="#000" stroke-width="3" fill="#fff"/><path d="M-1197 1680h332a6 6 0 0 1 6 6v28.35a6 6 0 0 0 6 6h307.36" stroke="#000" stroke-width="3" fill="none"/><path d="M-1196.96 1681.47h-1.54v-2.94h1.54z" stroke="#000" stroke-width=".05"/><path d="M-522.5 1720.35l-21.64 12.5v-25z" stroke="#000" stroke-width="3" fill="#fff"/><path d="M-1197 1400h332a6 6 0 0 1 6 6v308.35a6 6 0 0 0 6 6h307.36" stroke="#000" stroke-width="3" fill="none"/><path d="M-1196.96 1401.47h-1.54v-2.94h1.54z" stroke="#000" stroke-width=".05"/><path d="M-522.5 1720.35l-21.64 12.5v-25zM-2180 1386a6 6 0 0 1 6-6h388a6 6 0 0 1 6 6v228a6 6 0 0 1-6 6h-388a6 6 0 0 1-6-6zm40-6v240m320-240v240" stroke="#000" stroke-width="3" fill="#fff"/><use xlink:href="#n" transform="matrix(1,0,0,1,-2130,1380) translate(81.62434895833334 128.08376736111111)"/><path d="M-1688.53 1494.06l-.08 1.1-.3 1.15-.44 1.1-.6 1-.77.9-.9.75-1 .6-1.1.46-1.13.3-1.1.07H-1777v-2.94h80.94l.77-.07.7-.16.65-.27.6-.37.55-.46.46-.54.37-.6.27-.66.16-.7.07-.76v-31.68h2.94zm85.53-89.6h-80.94l-.77.08-.7.16-.65.27-.6.37-.55.46-.46.54-.37.6-.27.66-.16.7-.07.76v31.68h-2.94v-31.8l.08-1.1.3-1.15.44-1.1.6-1 .77-.9.9-.75 1-.6 1.1-.46 1.13-.3 1.1-.07h81.07z" stroke="#000" stroke-width=".05"/><path d="M-1776.96 1501.47h-1.54v-2.94h1.54z"/><path stroke="#000" stroke-width=".05"/><path d="M-1601.5 1404.47h-1.54v-2.94h1.54z"/><path stroke="#000" stroke-width=".05"/><use xlink:href="#o" transform="matrix(1,0,0,1,-1710.7855896199053,1440.7447410087946) translate(0 17.22222222222222)"/><use xlink:href="#p" transform="matrix(1,0,0,1,-1615.7025590149105,1378.7451525905055) translate(0 16.216875)"/><path d="M-1688.53 1673.94l.07.77.16.7.27.65.37.6.46.55.54.46.6.37.66.27.7.16.76.07h80.94v2.94h-81.06l-1.1-.08-1.15-.3-1.1-.44-1-.6-.9-.77-.75-.9-.6-1-.46-1.1-.3-1.13-.07-1.1v-98.94h2.94zm-6.3-175.33l1.14.3 1.1.44 1 .6.9.77.75.9.6 1 .46 1.1.3 1.13.07 1.1v47.7h-2.94v-47.57l-.07-.77-.16-.7-.27-.65-.37-.6-.46-.55-.54-.46-.6-.37-.66-.27-.7-.16-.76-.07H-1777v-2.94h81.06z" stroke="#000" stroke-width=".05"/><path d="M-1776.96 1501.47h-1.54v-2.94h1.54z"/><path stroke="#000" stroke-width=".05"/><path d="M-1601.5 1681.47h-1.54v-2.94h1.54z"/><path stroke="#000" stroke-width=".05"/><use xlink:href="#o" transform="matrix(1,0,0,1,-1710.7855902777778,1553.6157427845599) translate(0 17.22222222222222)"/><use xlink:href="#p" transform="matrix(1,0,0,1,-1768.688920954338,1504.0000000000002) translate(0 16.216875)"/><use xlink:href="#p" transform="matrix(1,0,0,1,-1624.2270015488793,1655.7452539062501) translate(0 16.216875)"/><path d="M-2720 1466a6 6 0 0 1 6-6h388a6 6 0 0 1 6 6v228a6 6 0 0 1-6 6h-388a6 6 0 0 1-6-6zm40-6v240m320-240v240" stroke="#000" stroke-width="3" fill="#fff"/><use xlink:href="#q" transform="matrix(1,0,0,1,-2670,1460) translate(44.21657986111113 128.08376736111111)"/><path d="M-2030.8 1239.97h-241.64l-.77.07-.7.16-.65.27-.6.37-.55.46-.46.54-.37.6-.27.66-.16.7-.07.76v329.5l-.08 1.1-.3 1.15-.44 1.1-.6 1-.77.9-.9.75-1 .6-1.1.46-1.13.3-1.1.07H-2317v-2.94h32.44l.77-.07.7-.16.65-.27.6-.37.55-.46.46-.54.37-.6.27-.66.16-.7.07-.76v-329.5l.08-1.1.3-1.15.44-1.1.6-1 .77-.9.9-.75 1-.6 1.1-.46 1.13-.3 1.1-.07h241.78zm625.97-2.86l1.14.3 1.1.44 1 .6.9.77.75.9.6 1 .46 1.1.3 1.13.07 1.1V1277h-2.94v-32.44l-.07-.77-.16-.7-.27-.65-.37-.6-.46-.55-.54-.46-.6-.37-.66-.27-.7-.16-.76-.07h-583.15v-2.94h583.26z" stroke="#000" stroke-width=".05"/><path d="M-2316.96 1581.47h-1.54v-2.94h1.54z"/><path stroke="#000" stroke-width=".05"/><path d="M-1398.53 1278.5h-2.94v-1.54h2.94z"/><path stroke="#000" stroke-width=".05"/><use xlink:href="#o" transform="matrix(1,0,0,1,-2030.7855902777778,1227.7448416666668) translate(0 17.22222222222222)"/><use xlink:href="#p" transform="matrix(1,0,0,1,-2313.7122480694725,1584) translate(0 16.216875)"/><use xlink:href="#p" transform="matrix(1,0,0,1,-1392,1252.0572904414714) translate(0 16.216875)"/><path d="M-2283.33 1578.6l1.14.3 1.1.44 1 .6.9.77.75.9.6 1 .46 1.1.3 1.13.07 1.1v88l.07.78.16.7.27.65.37.6.46.55.54.46.6.37.66.27.7.16.76.07h241.65v2.94h-241.76l-1.1-.08-1.15-.3-1.1-.44-1-.6-.9-.77-.75-.9-.6-1-.46-1.1-.3-1.13-.07-1.1v-88l-.07-.78-.16-.7-.27-.65-.37-.6-.46-.55-.54-.46-.6-.37-.66-.27-.7-.16-.76-.07H-2317v-2.94h32.56zm680.33 99.93v2.94h-386.2v-2.94z" stroke="#000" stroke-width=".05"/><path d="M-2316.96 1581.47h-1.54v-2.94h1.54z"/><path stroke="#000" stroke-width=".05"/><path d="M-1601.5 1681.47h-1.54v-2.94h1.54z"/><path stroke="#000" stroke-width=".05"/><use xlink:href="#o" transform="matrix(1,0,0,1,-2030.7855902777778,1669.2447916666667) translate(0 17.22222222222222)"/><path d="M-1647.44 1718.87l1.1.1 1.15.27 1.1.44 1 .62.9.76.75.9.6 1 .46 1.08.3 1.14.07 1.1v1067.66l.07.77.16.7.27.65.37.6.46.55.54.46.6.37.66.27.7.16.76.07h32.44v2.94h-32.56l-1.1-.08-1.15-.3-1.1-.44-1-.6-.9-.77-.75-.9-.6-1-.46-1.1-.3-1.13-.07-1.1V1726.4l-.07-.76-.16-.7-.27-.64-.37-.6-.46-.55-.54-.46-.6-.38-.66-.27-.7-.17-.76-.06h-348.88v-2.95zm-634.75-139.98l1.1.44 1 .6.9.77.75.9.6 1 .46 1.1.3 1.13.07 1.1v128.36l.07.76.16.7.27.64.37.6.46.55.54.46.6.38.66.27.7.16.76.07H-2038v2.95h-234.56l-1.1-.08-1.15-.28-1.1-.45-1-.6-.9-.76-.75-.9-.6-1-.46-1.08-.3-1.14-.07-1.1v-128.36l-.07-.77-.16-.7-.27-.65-.37-.6-.46-.55-.54-.46-.6-.37-.66-.27-.7-.16-.76-.07H-2317v-2.94h32.56l1.1.08z" stroke="#000" stroke-width=".05"/><path d="M-2316.96 1581.47h-1.54v-2.94h1.54z"/><path stroke="#000" stroke-width=".05"/><path d="M-1601.5 2801.47h-1.54v-2.94h1.54z"/><path stroke="#000" stroke-width=".05"/><use xlink:href="#o" transform="matrix(1,0,0,1,-2038.0059363273922,1709.5938337982957) translate(0 17.22222222222222)"/><use xlink:href="#p" transform="matrix(1,0,0,1,-1618.1442763791065,2775.74525390625) translate(0 16.216875)"/><path d="M-2380 1926a6 6 0 0 1 6-6h388a6 6 0 0 1 6 6v228a6 6 0 0 1-6 6h-388a6 6 0 0 1-6-6zm40-6v240m320-240v240" stroke="#000" stroke-width="3" fill="#fe7070"/><use xlink:href="#r" transform="matrix(1,0,0,1,-2330,1920) translate(66.63411458333333 128.08376736111111)"/><path d="M-1794.83 2038.6l1.14.3 1.1.44 1 .6.9.77.75.9.6 1 .46 1.1.3 1.13.07 1.1v188l.07.78.16.7.27.65.37.6.46.55.54.46.6.37.66.27.7.16.76.07h50.15v2.94h-50.26l-1.1-.08-1.15-.3-1.1-.44-1-.6-.9-.77-.75-.9-.6-1-.46-1.1-.3-1.13-.07-1.1v-188l-.07-.78-.16-.7-.27-.65-.37-.6-.46-.55-.54-.46-.6-.37-.66-.27-.7-.16-.76-.07H-1977v-2.94h181.06zm191.83 199.93v2.94h-89.22v-2.94z" stroke="#000" stroke-width=".05"/><path d="M-1976.96 2041.47h-1.54v-2.94h1.54z"/><path stroke="#000" stroke-width=".05"/><path d="M-1601.5 2241.47h-1.54v-2.94h1.54z"/><path stroke="#000" stroke-width=".05"/><use xlink:href="#o" transform="matrix(1,0,0,1,-1733.7868410595165,2229.2447916666665) translate(0 17.22222222222222)"/><path d="M-1794.83 2038.6l1.14.3 1.1.44 1 .6.9.77.75.9.6 1 .46 1.1.3 1.13.07 1.1v748l.07.78.16.7.27.65.37.6.46.55.54.46.6.37.66.27.7.16.76.07h43.95v2.94h-44.06l-1.1-.08-1.15-.3-1.1-.44-1-.6-.9-.77-.75-.9-.6-1-.46-1.1-.3-1.13-.07-1.1v-748l-.07-.78-.16-.7-.27-.65-.37-.6-.46-.55-.54-.46-.6-.37-.66-.27-.7-.16-.76-.07H-1977v-2.94h181.06zm191.83 759.93v2.94h-95.4v-2.94z" stroke="#000" stroke-width=".05"/><path d="M-1976.96 2041.47h-1.54v-2.94h1.54z"/><path stroke="#000" stroke-width=".05"/><path d="M-1601.5 2801.47h-1.54v-2.94h1.54z"/><path stroke="#000" stroke-width=".05"/><use xlink:href="#p" transform="matrix(1,0,0,1,-1971.6531460173446,2044.0000000000002) translate(0 16.216875)"/><use xlink:href="#o" transform="matrix(1,0,0,1,-1739.985871703669,2789.2447916666665) translate(0 17.22222222222222)"/><path d="M-1620 2206a6 6 0 0 1 6-6h8a6 6 0 0 1 6 6v18.26a6 6 0 0 1-6 6h-8a6 6 0 0 1-6-6z" fill="none"/><use xlink:href="#p" transform="matrix(1,0,0,1,-1615,2205) translate(1.5956005859374995 16.589501953125)"/><defs><path d="M52 0l541-1490h220L1361 0h-200l-149-416H398L254 0H52zm404-582h497c-103-290-145-390-251-756-108 377-145 460-246 756" id="s"/><path d="M158 418v-1536h174v179h20c37-59 106-193 324-193 279 0 474 222 474 576 0 356-194 580-473 580-213 0-288-135-325-197h-14v591H158zm492-555c209 0 317-186 317-421 0-232-105-413-317-413-206 0-314 166-314 413 0 249 111 421 314 421" id="t"/><path d="M338-1490V0H158v-1490h180" id="u"/><path d="M158 0v-1118h180V0H158zm91-1301c-68 0-125-53-125-119s57-119 125-119c69 0 126 53 126 119s-57 119-126 119" id="v"/><path d="M613 24c-304 0-509-231-509-576 0-350 205-580 509-580 216 0 392 114 453 309l-173 49c-33-115-133-197-280-197-223 0-326 196-326 419 0 220 103 415 326 415 150 0 252-85 285-206l172 49C1010-95 832 24 613 24" id="w"/><path d="M471 26C259 26 90-98 90-318c0-256 228-303 435-329 202-27 287-16 287-108 0-139-79-219-234-219-161 0-248 86-283 164l-173-57c86-203 278-265 451-265 150 0 419 46 419 395V0H815v-152h-12C765-73 660 26 471 26zm31-159c199 0 310-134 310-271v-155c-30 35-226 55-295 64-131 17-246 59-246 186 0 116 97 176 231 176" id="x"/><path d="M598-1118v154H368v674c0 100 37 144 132 144 23 0 62-6 92-12L629-6c-37 13-88 20-134 20-193 0-307-107-307-290v-688H20v-154h168v-266h180v266h230" id="y"/><path d="M613 24c-304 0-509-231-509-576 0-350 205-580 509-580 305 0 511 230 511 580 0 345-206 576-511 576zm0-161c226 0 329-195 329-415 0-222-103-419-329-419-223 0-326 196-326 419 0 220 103 415 326 415" id="z"/><path d="M338-670V0H158v-1118h173l1 207c72-158 192-221 342-221 226 0 378 139 378 422V0H872v-695c0-172-96-275-252-275-161 0-282 109-282 300" id="A"/><g id="a"><use transform="matrix(0.010850694444444444,0,0,0.010850694444444444,0,0)" xlink:href="#s"/><use transform="matrix(0.010850694444444444,0,0,0.010850694444444444,15.33203125,0)" xlink:href="#t"/><use transform="matrix(0.010850694444444444,0,0,0.010850694444444444,28.938802083333332,0)" xlink:href="#t"/><use transform="matrix(0.010850694444444444,0,0,0.010850694444444444,42.545572916666664,0)" xlink:href="#u"/><use transform="matrix(0.010850694444444444,0,0,0.010850694444444444,47.92751736111111,0)" xlink:href="#v"/><use transform="matrix(0.010850694444444444,0,0,0.010850694444444444,53.30946180555556,0)" xlink:href="#w"/><use transform="matrix(0.010850694444444444,0,0,0.010850694444444444,66.22178819444443,0)" xlink:href="#x"/><use transform="matrix(0.010850694444444444,0,0,0.010850694444444444,78.70008680555554,0)" xlink:href="#y"/><use transform="matrix(0.010850694444444444,0,0,0.010850694444444444,85.97005208333331,0)" xlink:href="#v"/><use transform="matrix(0.010850694444444444,0,0,0.010850694444444444,91.35199652777776,0)" xlink:href="#z"/><use transform="matrix(0.010850694444444444,0,0,0.010850694444444444,104.67664930555553,0)" xlink:href="#A"/></g><path d="M481 0L54-1118h197c107 314 236 620 325 951 87-331 217-637 324-951h197L670 0H481" id="B"/><path d="M140 405l46-156c120 36 205 19 263-150l32-93L54-1118h197c107 313 237 620 324 950 87-331 219-637 326-950h196L606 167c-68 178-176 259-334 259-64 0-113-12-132-21" id="C"/><g id="b"><use transform="matrix(0.010850694444444444,0,0,0.010850694444444444,0,0)" xlink:href="#s"/><use transform="matrix(0.010850694444444444,0,0,0.010850694444444444,15.33203125,0)" xlink:href="#w"/><use transform="matrix(0.010850694444444444,0,0,0.010850694444444444,28.02734375,0)" xlink:href="#y"/><use transform="matrix(0.010850694444444444,0,0,0.010850694444444444,35.29730902777778,0)" xlink:href="#v"/><use transform="matrix(0.010850694444444444,0,0,0.010850694444444444,40.67925347222222,0)" xlink:href="#B"/><use transform="matrix(0.010850694444444444,0,0,0.010850694444444444,53.16840277777778,0)" xlink:href="#v"/><use transform="matrix(0.010850694444444444,0,0,0.010850694444444444,58.55034722222222,0)" xlink:href="#y"/><use transform="matrix(0.010850694444444444,0,0,0.010850694444444444,66.25434027777777,0)" xlink:href="#C"/></g><path d="M653-1490V0H466v-1314h-10L96-1047v-204l324-239h233" id="D"/><use transform="matrix(0.008173828125000001,0,0,0.008173828125000001,0,0)" xlink:href="#D" id="c"/><path d="M87 0l247-1490h901l-28 167H496l-85 512h643l-27 167H384L277 0H87" id="E"/><path d="M66 0l185-1118h174l-28 172h12c78-136 219-209 411-185l-30 181c-211-47-398 67-428 250L246 0H66" id="F"/><path d="M481 24C202 24 45-202 104-557s293-575 571-575c216 0 263 132 291 193h15l29-179h181L1006 0H831l28-173h-21C788-107 693 24 481 24zm56-161c204 0 342-174 383-422s-41-412-245-412c-215 0-350 183-388 412-39 235 39 422 250 422" id="G"/><path d="M456 442C197 442 73 327 25 209l155-84c33 60 86 160 280 160 184 0 332-89 363-272l37-218-16 4C793-134 707-18 498-18 260-18 96-170 96-443c0-341 216-689 568-689 222 0 274 139 301 198l21-5 30-179h175L999 35c-48 288-275 407-543 407zm75-620c274 0 401-267 401-512 0-170-80-281-247-281-260 0-408 269-408 518 0 167 83 275 254 275" id="H"/><path d="M65 0l186-1118h175l-31 195c80-148 212-215 337-215 153 0 236 96 255 228 75-143 223-228 382-228 199 0 341 131 298 390L1543 0h-181l126-756c27-162-65-218-177-218-160 0-274 111-297 250L894 0H714l128-773c21-127-57-201-174-201-136 0-277 97-307 277L245 0H65" id="I"/><path d="M535 24C259 24 94-144 94-427c0-392 272-715 610-715 216 0 356 119 356 305 0 244-237 344-790 350-18 199 49 349 276 352 142 0 260-66 317-173l167 47C947-85 756 24 535 24zM294-623c447-4 586-57 586-218 0-85-78-141-194-141-220 0-342 177-392 359" id="J"/><path d="M356-664L245 0H65l186-1118h173l-32 197c96-152 219-211 366-211 232 0 366 145 319 428L960 0H779l117-701c29-174-48-269-198-269-165 0-310 115-342 306" id="K"/><path d="M691-1118l-25 154H437L325-290c-17 103 16 144 108 144 23 0 63-6 94-12L538-6c-36 12-87 20-136 20-196 0-290-109-260-290l114-688H88l25-154h169l44-266h180l-44 266h229" id="L"/><g id="d"><use transform="matrix(0.010850694444444444,0,0,0.010850694444444444,0,0)" xlink:href="#E"/><use transform="matrix(0.010850694444444444,0,0,0.010850694444444444,12.467447916666666,0)" xlink:href="#F"/><use transform="matrix(0.010850694444444444,0,0,0.010850694444444444,20.475260416666664,0)" xlink:href="#G"/><use transform="matrix(0.010850694444444444,0,0,0.010850694444444444,34.11458333333333,0)" xlink:href="#H"/><use transform="matrix(0.010850694444444444,0,0,0.010850694444444444,47.74305555555556,0)" xlink:href="#I"/><use transform="matrix(0.010850694444444444,0,0,0.010850694444444444,67.20920138888889,0)" xlink:href="#J"/><use transform="matrix(0.010850694444444444,0,0,0.010850694444444444,80.00217013888889,0)" xlink:href="#K"/><use transform="matrix(0.010850694444444444,0,0,0.010850694444444444,93.14236111111111,0)" xlink:href="#L"/></g><path d="M295 13c-75 0-135-60-135-135s60-135 135-135 135 60 135 135S370 13 295 13" id="M"/><path d="M441-652l13-317-268 171-72-126 282-146-282-146 72-128 268 171-13-317h144l-12 317 267-171 72 128-282 146 282 146-72 126-267-171 12 317H441" id="N"/><g id="e"><use transform="matrix(0.008173828125000001,0,0,0.008173828125000001,0,0)" xlink:href="#D"/><use transform="matrix(0.008173828125000001,0,0,0.008173828125000001,6.808798828125001,0)" xlink:href="#M"/><use transform="matrix(0.008173828125000001,0,0,0.008173828125000001,11.631357421875002,0)" xlink:href="#M"/><use transform="matrix(0.008173828125000001,0,0,0.008173828125000001,16.453916015625,0)" xlink:href="#N"/></g><path d="M180 0v-1490h190v1322h690V0H180" id="O"/><path d="M611 442c-248 0-391-105-460-228l146-94c47 65 117 165 314 165 178 0 307-82 307-266v-224h-17C863-141 792-18 576-18c-268 0-472-195-472-546 0-346 197-568 476-568 216 0 288 133 326 193h17v-179h175V29c0 289-215 413-487 413zm-5-620c203 0 314-146 314-390 0-237-108-403-314-403-213 0-319 180-319 403 0 230 109 390 319 390" id="P"/><path d="M180 0v-1490h901v168H370v510h643v168H370V0H180" id="Q"/><path d="M158 0v-1118h174v172h12c41-113 157-188 290-188 26 0 70 2 91 3v181c-11-2-60-10-108-10-161 0-279 109-279 260V0H158" id="R"/><path d="M158 0v-1118h175l1 205c55-151 181-225 313-225 147 0 245 90 285 228 53-141 190-228 352-228 194 0 352 125 352 384V0h-181v-749c0-161-105-225-225-225-151 0-243 103-243 244V0H807v-767c0-124-93-207-219-207-131 0-250 92-250 270V0H158" id="S"/><path d="M628 24c-324 0-524-230-524-574 0-343 198-582 503-582 237 0 487 146 487 559v75H286c9 234 145 362 343 362 132 0 231-58 273-172l174 48C1024-91 857 24 628 24zM287-650h624c-17-190-120-322-304-322-192 0-309 151-320 322" id="T"/><g id="f"><use transform="matrix(0.010850694444444444,0,0,0.010850694444444444,0,0)" xlink:href="#O"/><use transform="matrix(0.010850694444444444,0,0,0.010850694444444444,12.565104166666666,0)" xlink:href="#z"/><use transform="matrix(0.010850694444444444,0,0,0.010850694444444444,25.889756944444443,0)" xlink:href="#P"/><use transform="matrix(0.010850694444444444,0,0,0.010850694444444444,39.518229166666664,0)" xlink:href="#v"/><use transform="matrix(0.010850694444444444,0,0,0.010850694444444444,44.90017361111111,0)" xlink:href="#A"/><use transform="matrix(0.010850694444444444,0,0,0.010850694444444444,58.029513888888886,0)" xlink:href="#Q"/><use transform="matrix(0.010850694444444444,0,0,0.010850694444444444,70.49696180555556,0)" xlink:href="#R"/><use transform="matrix(0.010850694444444444,0,0,0.010850694444444444,78.86284722222223,0)" xlink:href="#x"/><use transform="matrix(0.010850694444444444,0,0,0.010850694444444444,91.34114583333334,0)" xlink:href="#P"/><use transform="matrix(0.010850694444444444,0,0,0.010850694444444444,104.96961805555557,0)" xlink:href="#S"/><use transform="matrix(0.010850694444444444,0,0,0.010850694444444444,124.4357638888889,0)" xlink:href="#T"/><use transform="matrix(0.010850694444444444,0,0,0.010850694444444444,137.39149305555557,0)" xlink:href="#A"/><use transform="matrix(0.010850694444444444,0,0,0.010850694444444444,150.52083333333334,0)" xlink:href="#y"/></g><path d="M657 26c-323 0-524-166-541-416h195c15 169 171 246 346 246 202 0 356-106 356-265 5-203-294-238-475-293-239-73-380-191-380-389 0-252 224-419 512-419 294 0 499 171 508 396H992c-17-145-151-228-328-228-193 0-321 102-321 242 0 156 175 211 284 241l149 41c160 44 422 134 422 412 0 244-197 432-541 432" id="U"/><path d="M537 14c-226 0-379-139-379-422v-710h180v695c0 172 97 275 253 275 160 0 281-109 281-300v-670h181V0H879v-209C806-46 684 14 537 14" id="V"/><g id="g"><use transform="matrix(0.010850694444444444,0,0,0.010850694444444444,0,0)" xlink:href="#U"/><use transform="matrix(0.010850694444444444,0,0,0.010850694444444444,14.2578125,0)" xlink:href="#v"/><use transform="matrix(0.010850694444444444,0,0,0.010850694444444444,19.639756944444443,0)" xlink:href="#P"/><use transform="matrix(0.010850694444444444,0,0,0.010850694444444444,33.268229166666664,0)" xlink:href="#A"/><use transform="matrix(0.010850694444444444,0,0,0.010850694444444444,46.39756944444444,0)" xlink:href="#V"/><use transform="matrix(0.010850694444444444,0,0,0.010850694444444444,59.537760416666664,0)" xlink:href="#t"/><use transform="matrix(0.010850694444444444,0,0,0.010850694444444444,73.14453125,0)" xlink:href="#Q"/><use transform="matrix(0.010850694444444444,0,0,0.010850694444444444,85.61197916666666,0)" xlink:href="#R"/><use transform="matrix(0.010850694444444444,0,0,0.010850694444444444,93.97786458333333,0)" xlink:href="#x"/><use transform="matrix(0.010850694444444444,0,0,0.010850694444444444,106.45616319444444,0)" xlink:href="#P"/><use transform="matrix(0.010850694444444444,0,0,0.010850694444444444,120.08463541666666,0)" xlink:href="#S"/><use transform="matrix(0.010850694444444444,0,0,0.010850694444444444,139.55078125,0)" xlink:href="#T"/><use transform="matrix(0.010850694444444444,0,0,0.010850694444444444,152.50651041666666,0)" xlink:href="#A"/><use transform="matrix(0.010850694444444444,0,0,0.010850694444444444,165.63585069444443,0)" xlink:href="#y"/></g><path d="M180 0v-1490h270l367 940c28 72 75 218 110 339 35-117 81-264 110-339l362-940h271V0h-187c2-448-5-837 7-1287-157 497-311 829-483 1287H842C666-458 514-784 354-1284c12 438 5 843 7 1284H180" id="W"/><path d="M600 0L52-1490h200c166 485 304 806 458 1336 156-533 285-846 449-1336h202L819 0H600" id="X"/><path d="M409 0L70-1118h191c89 329 165 560 243 925 75-353 154-601 240-925h192c85 325 161 564 235 922 77-354 157-598 244-922h191L1267 0h-179c-86-307-176-590-250-913C763-588 675-308 588 0H409" id="Y"/><g id="h"><use transform="matrix(0.010850694444444444,0,0,0.010850694444444444,0,0)" xlink:href="#W"/><use transform="matrix(0.010850694444444444,0,0,0.010850694444444444,20.07378472222222,0)" xlink:href="#x"/><use transform="matrix(0.010850694444444444,0,0,0.010850694444444444,32.55208333333333,0)" xlink:href="#v"/><use transform="matrix(0.010850694444444444,0,0,0.010850694444444444,37.93402777777777,0)" xlink:href="#A"/><use transform="matrix(0.010850694444444444,0,0,0.010850694444444444,49.93489583333333,0)" xlink:href="#X"/><use transform="matrix(0.010850694444444444,0,0,0.010850694444444444,65.26692708333333,0)" xlink:href="#v"/><use transform="matrix(0.010850694444444444,0,0,0.010850694444444444,70.64887152777777,0)" xlink:href="#T"/><use transform="matrix(0.010850694444444444,0,0,0.010850694444444444,83.203125,0)" xlink:href="#Y"/><use transform="matrix(0.010850694444444444,0,0,0.010850694444444444,101.38888888888889,0)" xlink:href="#Q"/><use transform="matrix(0.010850694444444444,0,0,0.010850694444444444,113.85633680555556,0)" xlink:href="#R"/><use transform="matrix(0.010850694444444444,0,0,0.010850694444444444,122.22222222222221,0)" xlink:href="#x"/><use transform="matrix(0.010850694444444444,0,0,0.010850694444444444,134.70052083333331,0)" xlink:href="#P"/><use transform="matrix(0.010850694444444444,0,0,0.010850694444444444,148.32899305555554,0)" xlink:href="#S"/><use transform="matrix(0.010850694444444444,0,0,0.010850694444444444,167.79513888888889,0)" xlink:href="#T"/><use transform="matrix(0.010850694444444444,0,0,0.010850694444444444,180.75086805555554,0)" xlink:href="#A"/><use transform="matrix(0.010850694444444444,0,0,0.010850694444444444,193.88020833333331,0)" xlink:href="#y"/></g><path d="M180 0v-1490h510c348 0 508 194 508 460 0 198-88 351-276 417L1256 0h-220L726-579c-117 2-238 0-356 1V0H180zm190-747h312c235 0 327-108 327-283 0-177-92-293-329-293H370v576" id="Z"/><g id="i"><use transform="matrix(0.010850694444444444,0,0,0.010850694444444444,0,0)" xlink:href="#Z"/><use transform="matrix(0.010850694444444444,0,0,0.010850694444444444,13.975694444444445,0)" xlink:href="#T"/><use transform="matrix(0.010850694444444444,0,0,0.010850694444444444,26.931423611111104,0)" xlink:href="#t"/><use transform="matrix(0.010850694444444444,0,0,0.010850694444444444,40.53819444444444,0)" xlink:href="#z"/><use transform="matrix(0.010850694444444444,0,0,0.010850694444444444,53.86284722222222,0)" xlink:href="#R"/><use transform="matrix(0.010850694444444444,0,0,0.010850694444444444,62.57595486111111,0)" xlink:href="#y"/><use transform="matrix(0.010850694444444444,0,0,0.010850694444444444,69.62890625,0)" xlink:href="#X"/><use transform="matrix(0.010850694444444444,0,0,0.010850694444444444,84.9609375,0)" xlink:href="#v"/><use transform="matrix(0.010850694444444444,0,0,0.010850694444444444,90.34288194444444,0)" xlink:href="#T"/><use transform="matrix(0.010850694444444444,0,0,0.010850694444444444,102.89713541666666,0)" xlink:href="#Y"/><use transform="matrix(0.010850694444444444,0,0,0.010850694444444444,121.08289930555556,0)" xlink:href="#Q"/><use transform="matrix(0.010850694444444444,0,0,0.010850694444444444,133.55034722222223,0)" xlink:href="#R"/><use transform="matrix(0.010850694444444444,0,0,0.010850694444444444,141.91623263888889,0)" xlink:href="#x"/><use transform="matrix(0.010850694444444444,0,0,0.010850694444444444,154.39453125,0)" xlink:href="#P"/><use transform="matrix(0.010850694444444444,0,0,0.010850694444444444,168.02300347222223,0)" xlink:href="#S"/><use transform="matrix(0.010850694444444444,0,0,0.010850694444444444,187.4891493055556,0)" xlink:href="#T"/><use transform="matrix(0.010850694444444444,0,0,0.010850694444444444,200.44487847222223,0)" xlink:href="#A"/><use transform="matrix(0.010850694444444444,0,0,0.010850694444444444,213.57421875,0)" xlink:href="#y"/></g><path d="M538 24C308 24 148-78 108-271l171-41c32 123 123 178 257 178 156 0 256-77 256-169 0-77-54-128-164-154l-186-44c-203-48-300-148-300-305 0-192 176-326 414-326 230 0 351 112 402 269l-163 42c-31-80-94-158-238-158-133 0-233 69-233 162 0 83 57 129 188 160l169 40c203 48 298 149 298 302 0 196-179 339-441 339" id="aa"/><g id="j"><use transform="matrix(0.010850694444444444,0,0,0.010850694444444444,0,0)" xlink:href="#Z"/><use transform="matrix(0.010850694444444444,0,0,0.010850694444444444,13.975694444444445,0)" xlink:href="#T"/><use transform="matrix(0.010850694444444444,0,0,0.010850694444444444,26.931423611111104,0)" xlink:href="#aa"/><use transform="matrix(0.010850694444444444,0,0,0.010850694444444444,38.66102430555555,0)" xlink:href="#y"/><use transform="matrix(0.010850694444444444,0,0,0.010850694444444444,46.03949652777778,0)" xlink:href="#x"/><use transform="matrix(0.010850694444444444,0,0,0.010850694444444444,58.517795138888886,0)" xlink:href="#V"/><use transform="matrix(0.010850694444444444,0,0,0.010850694444444444,71.65798611111111,0)" xlink:href="#R"/><use transform="matrix(0.010850694444444444,0,0,0.010850694444444444,80.02387152777779,0)" xlink:href="#x"/><use transform="matrix(0.010850694444444444,0,0,0.010850694444444444,92.5021701388889,0)" xlink:href="#A"/><use transform="matrix(0.010850694444444444,0,0,0.010850694444444444,105.63151041666666,0)" xlink:href="#y"/><use transform="matrix(0.010850694444444444,0,0,0.010850694444444444,112.90147569444444,0)" xlink:href="#O"/><use transform="matrix(0.010850694444444444,0,0,0.010850694444444444,125.4665798611111,0)" xlink:href="#x"/><use transform="matrix(0.010850694444444444,0,0,0.010850694444444444,137.61935763888889,0)" xlink:href="#C"/><use transform="matrix(0.010850694444444444,0,0,0.010850694444444444,149.67447916666666,0)" xlink:href="#z"/><use transform="matrix(0.010850694444444444,0,0,0.010850694444444444,162.99913194444443,0)" xlink:href="#V"/><use transform="matrix(0.010850694444444444,0,0,0.010850694444444444,176.13932291666666,0)" xlink:href="#y"/><use transform="matrix(0.010850694444444444,0,0,0.010850694444444444,183.40928819444443,0)" xlink:href="#Q"/><use transform="matrix(0.010850694444444444,0,0,0.010850694444444444,195.87673611111111,0)" xlink:href="#R"/><use transform="matrix(0.010850694444444444,0,0,0.010850694444444444,204.24262152777777,0)" xlink:href="#x"/><use transform="matrix(0.010850694444444444,0,0,0.010850694444444444,216.72092013888889,0)" xlink:href="#P"/><use transform="matrix(0.010850694444444444,0,0,0.010850694444444444,230.34939236111111,0)" xlink:href="#S"/><use transform="matrix(0.010850694444444444,0,0,0.010850694444444444,249.81553819444449,0)" xlink:href="#T"/><use transform="matrix(0.010850694444444444,0,0,0.010850694444444444,262.77126736111114,0)" xlink:href="#A"/><use transform="matrix(0.010850694444444444,0,0,0.010850694444444444,275.9006076388889,0)" xlink:href="#y"/></g><g id="k"><use transform="matrix(0.010850694444444444,0,0,0.010850694444444444,0,0)" xlink:href="#U"/><use transform="matrix(0.010850694444444444,0,0,0.010850694444444444,14.2578125,0)" xlink:href="#T"/><use transform="matrix(0.010850694444444444,0,0,0.010850694444444444,27.213541666666664,0)" xlink:href="#y"/><use transform="matrix(0.010850694444444444,0,0,0.010850694444444444,33.94097222222222,0)" xlink:href="#y"/><use transform="matrix(0.010850694444444444,0,0,0.010850694444444444,41.2109375,0)" xlink:href="#v"/><use transform="matrix(0.010850694444444444,0,0,0.010850694444444444,46.59288194444444,0)" xlink:href="#A"/><use transform="matrix(0.010850694444444444,0,0,0.010850694444444444,59.72222222222222,0)" xlink:href="#P"/><use transform="matrix(0.010850694444444444,0,0,0.010850694444444444,73.35069444444444,0)" xlink:href="#aa"/><use transform="matrix(0.010850694444444444,0,0,0.010850694444444444,85.08029513888889,0)" xlink:href="#Q"/><use transform="matrix(0.010850694444444444,0,0,0.010850694444444444,97.54774305555556,0)" xlink:href="#R"/><use transform="matrix(0.010850694444444444,0,0,0.010850694444444444,105.91362847222221,0)" xlink:href="#x"/><use transform="matrix(0.010850694444444444,0,0,0.010850694444444444,118.39192708333333,0)" xlink:href="#P"/><use transform="matrix(0.010850694444444444,0,0,0.010850694444444444,132.02039930555554,0)" xlink:href="#S"/><use transform="matrix(0.010850694444444444,0,0,0.010850694444444444,151.48654513888889,0)" xlink:href="#T"/><use transform="matrix(0.010850694444444444,0,0,0.010850694444444444,164.44227430555554,0)" xlink:href="#A"/><use transform="matrix(0.010850694444444444,0,0,0.010850694444444444,177.57161458333331,0)" xlink:href="#y"/></g><path d="M180 0v-1490h224l606 953c40 63 108 177 176 312-27-437-7-821-13-1265h190V0h-226C860-448 622-778 356-1262c27 476 11 792 15 1262H180" id="ab"/><path d="M180 0v-1490h190v644h782v-644h190V0h-190v-678H370V0H180" id="ac"/><g id="l"><use transform="matrix(0.010850694444444444,0,0,0.010850694444444444,0,0)" xlink:href="#ab"/><use transform="matrix(0.010850694444444444,0,0,0.010850694444444444,16.74262152777778,0)" xlink:href="#x"/><use transform="matrix(0.010850694444444444,0,0,0.010850694444444444,28.89539930555556,0)" xlink:href="#B"/><use transform="matrix(0.010850694444444444,0,0,0.010850694444444444,41.49305555555556,0)" xlink:href="#ac"/><use transform="matrix(0.010850694444444444,0,0,0.010850694444444444,58.0078125,0)" xlink:href="#z"/><use transform="matrix(0.010850694444444444,0,0,0.010850694444444444,71.33246527777777,0)" xlink:href="#aa"/><use transform="matrix(0.010850694444444444,0,0,0.010850694444444444,83.06206597222221,0)" xlink:href="#y"/></g><path fill="#333" d="M135 0v-1490h305v602h649v-602h306V0h-306v-635H440V0H135" id="ad"/><path fill="#333" d="M628 22C291 22 81-210 81-554c0-346 210-578 547-578 336 0 547 232 547 578 0 344-211 576-547 576zm0-236c160 0 242-146 242-341 0-197-82-341-242-341S387-753 387-555c0 195 81 341 241 341" id="ae"/><path fill="#333" d="M572 22C302 22 117-98 78-306l279-48c29 105 101 156 224 156 114 0 185-48 185-115 0-118-228-130-337-155-215-49-322-150-322-317 0-215 187-347 470-347 265 0 424 116 466 298l-266 47c-24-76-87-130-196-130-98 0-174 46-174 113 0 56 38 95 144 117l201 40c216 44 320 143 320 302 0 220-207 367-500 367" id="af"/><path fill="#333" d="M683-1118v229H474v562c0 71 29 104 102 104 23 0 73-7 95-13l43 225C647 9 580 16 520 16 296 16 174-96 174-301v-588H20v-229h154v-266h300v266h209" id="ag"/><g id="m"><use transform="matrix(0.008680555555555556,0,0,0.008680555555555556,0,0)" xlink:href="#ad"/><use transform="matrix(0.008680555555555556,0,0,0.008680555555555556,13.28125,0)" xlink:href="#ae"/><use transform="matrix(0.008680555555555556,0,0,0.008680555555555556,24.18402777777778,0)" xlink:href="#af"/><use transform="matrix(0.008680555555555556,0,0,0.008680555555555556,34.140625,0)" xlink:href="#ag"/><use transform="matrix(0.008680555555555556,0,0,0.008680555555555556,40.52083333333333,0)" xlink:href="#af"/></g><path d="M678-1118v154H420V0H240v-964H20v-154h220v-149c0-194 155-293 318-293 85 0 141 18 168 30l-50 154c-19-6-47-17-97-17-111 0-159 58-159 166v109h258" id="ah"/><path d="M783 20c-382 0-661-292-661-764 0-473 279-766 661-766 302 0 548 182 601 489h-190c-42-204-217-313-411-313-268 0-476 208-476 590 0 381 209 588 476 588 195 0 369-110 411-313h190c-52 303-296 489-601 489" id="ai"/><g id="n"><use transform="matrix(0.010850694444444444,0,0,0.010850694444444444,0,0)" xlink:href="#Z"/><use transform="matrix(0.010850694444444444,0,0,0.010850694444444444,13.975694444444445,0)" xlink:href="#T"/><use transform="matrix(0.010850694444444444,0,0,0.010850694444444444,26.931423611111104,0)" xlink:href="#y"/><use transform="matrix(0.010850694444444444,0,0,0.010850694444444444,34.201388888888886,0)" xlink:href="#R"/><use transform="matrix(0.010850694444444444,0,0,0.010850694444444444,42.198350694444436,0)" xlink:href="#z"/><use transform="matrix(0.010850694444444444,0,0,0.010850694444444444,55.52300347222221,0)" xlink:href="#ah"/><use transform="matrix(0.010850694444444444,0,0,0.010850694444444444,63.7478298611111,0)" xlink:href="#v"/><use transform="matrix(0.010850694444444444,0,0,0.010850694444444444,69.12977430555554,0)" xlink:href="#y"/><use transform="matrix(0.010850694444444444,0,0,0.010850694444444444,76.39973958333331,0)" xlink:href="#ai"/><use transform="matrix(0.010850694444444444,0,0,0.010850694444444444,92.6323784722222,0)" xlink:href="#u"/><use transform="matrix(0.010850694444444444,0,0,0.010850694444444444,98.01432291666664,0)" xlink:href="#v"/><use transform="matrix(0.010850694444444444,0,0,0.010850694444444444,103.39626736111109,0)" xlink:href="#T"/><use transform="matrix(0.010850694444444444,0,0,0.010850694444444444,116.35199652777776,0)" xlink:href="#A"/><use transform="matrix(0.010850694444444444,0,0,0.010850694444444444,129.48133680555554,0)" xlink:href="#y"/></g><path fill="#333" d="M513 14c-232 0-385-159-385-421v-711h300v659c0 139 76 222 202 222 127 0 217-86 217-234v-647h301V0H864l-4-232C797-74 683 14 513 14" id="aj"/><path fill="#333" d="M633 22C291 22 81-200 81-553c0-345 210-579 537-579 292 0 525 185 525 567v84H378c7 183 109 277 260 277 105 0 184-46 216-132l272 51C1071-99 893 22 633 22zM380-669h474c-15-146-94-237-233-237-143 0-229 99-241 237" id="ak"/><g id="o"><use transform="matrix(0.008680555555555556,0,0,0.008680555555555556,0,0)" xlink:href="#aj"/><use transform="matrix(0.008680555555555556,0,0,0.008680555555555556,11.067708333333334,0)" xlink:href="#af"/><use transform="matrix(0.008680555555555556,0,0,0.008680555555555556,21.024305555555557,0)" xlink:href="#ak"/><use transform="matrix(0.008680555555555556,0,0,0.008680555555555556,31.614583333333336,0)" xlink:href="#af"/></g><use transform="matrix(0.008173828125000001,0,0,0.008173828125000001,0,0)" xlink:href="#D" id="p"/><path d="M180 0v-1490h908v168H370v486h669v168H370v500h727V0H180" id="al"/><path d="M577 24c-279 0-473-224-473-580 0-354 195-576 474-576 218 0 287 134 324 193h14v-551h180V0H922v-173h-20C865-111 790 24 577 24zm27-161c203 0 314-172 314-421 0-247-108-413-314-413-212 0-317 181-317 413 0 235 108 421 317 421" id="am"/><path d="M645 0H180v-1490h484c435 0 692 280 692 742 0 466-257 748-711 748zM370-168h263c363 0 539-218 539-580 0-358-176-574-521-574H370v1154" id="an"/><g id="q"><use transform="matrix(0.010850694444444444,0,0,0.010850694444444444,0,0)" xlink:href="#al"/><use transform="matrix(0.010850694444444444,0,0,0.010850694444444444,13.35720486111111,0)" xlink:href="#A"/><use transform="matrix(0.010850694444444444,0,0,0.010850694444444444,26.48654513888889,0)" xlink:href="#w"/><use transform="matrix(0.010850694444444444,0,0,0.010850694444444444,39.181857638888886,0)" xlink:href="#R"/><use transform="matrix(0.010850694444444444,0,0,0.010850694444444444,47.89496527777778,0)" xlink:href="#C"/><use transform="matrix(0.010850694444444444,0,0,0.010850694444444444,60.38411458333333,0)" xlink:href="#t"/><use transform="matrix(0.010850694444444444,0,0,0.010850694444444444,73.99088541666666,0)" xlink:href="#y"/><use transform="matrix(0.010850694444444444,0,0,0.010850694444444444,81.04383680555554,0)" xlink:href="#T"/><use transform="matrix(0.010850694444444444,0,0,0.010850694444444444,93.99956597222221,0)" xlink:href="#am"/><use transform="matrix(0.010850694444444444,0,0,0.010850694444444444,107.60633680555556,0)" xlink:href="#an"/><use transform="matrix(0.010850694444444444,0,0,0.010850694444444444,123.64366319444441,0)" xlink:href="#x"/><use transform="matrix(0.010850694444444444,0,0,0.010850694444444444,136.12196180555554,0)" xlink:href="#y"/><use transform="matrix(0.010850694444444444,0,0,0.010850694444444444,143.50043402777777,0)" xlink:href="#x"/><use transform="matrix(0.010850694444444444,0,0,0.010850694444444444,155.97873263888889,0)" xlink:href="#U"/><use transform="matrix(0.010850694444444444,0,0,0.010850694444444444,170.23654513888889,0)" xlink:href="#y"/><use transform="matrix(0.010850694444444444,0,0,0.010850694444444444,177.28949652777777,0)" xlink:href="#z"/><use transform="matrix(0.010850694444444444,0,0,0.010850694444444444,190.61414930555554,0)" xlink:href="#R"/><use transform="matrix(0.010850694444444444,0,0,0.010850694444444444,198.61111111111111,0)" xlink:href="#T"/></g><g id="r"><use transform="matrix(0.010850694444444444,0,0,0.010850694444444444,0,0)" xlink:href="#W"/><use transform="matrix(0.010850694444444444,0,0,0.010850694444444444,20.07378472222222,0)" xlink:href="#x"/><use transform="matrix(0.010850694444444444,0,0,0.010850694444444444,32.55208333333333,0)" xlink:href="#v"/><use transform="matrix(0.010850694444444444,0,0,0.010850694444444444,37.93402777777777,0)" xlink:href="#A"/><use transform="matrix(0.010850694444444444,0,0,0.010850694444444444,49.93489583333333,0)" xlink:href="#X"/><use transform="matrix(0.010850694444444444,0,0,0.010850694444444444,65.26692708333333,0)" xlink:href="#v"/><use transform="matrix(0.010850694444444444,0,0,0.010850694444444444,70.64887152777777,0)" xlink:href="#T"/><use transform="matrix(0.010850694444444444,0,0,0.010850694444444444,83.203125,0)" xlink:href="#Y"/><use transform="matrix(0.010850694444444444,0,0,0.010850694444444444,101.38888888888889,0)" xlink:href="#W"/><use transform="matrix(0.010850694444444444,0,0,0.010850694444444444,121.4626736111111,0)" xlink:href="#z"/><use transform="matrix(0.010850694444444444,0,0,0.010850694444444444,134.78732638888889,0)" xlink:href="#am"/><use transform="matrix(0.010850694444444444,0,0,0.010850694444444444,148.39409722222223,0)" xlink:href="#T"/><use transform="matrix(0.010850694444444444,0,0,0.010850694444444444,161.34982638888889,0)" xlink:href="#u"/></g></defs></g></svg>